<svg width="1648" height="1648" viewBox="0 0 1648 1648" fill="none" xmlns="http://www.w3.org/2000/svg">
<g clip-path="url(#clip0_1_2)">
<path d="M1646.77 829.329C1647.41 829.025 1647.86 829.03 1648.66 829.018C1649 829.444 1649 829.889 1649 830.667C1648.54 830.969 1648.09 830.939 1647.29 830.945C1646.66 830.581 1646.55 830.132 1646.77 829.329Z" fill="#B400BE"/>
<path d="M1646.91 828.551C1646.88 829.459 1646.81 829.899 1646.85 830.66C1646.92 847.646 1646.79 864.311 1646.88 880.975C1646.94 893.449 1646.12 905.905 1643.85 918.102C1635.76 961.616 1629.69 1005.55 1617.05 1048.15C1606.2 1084.76 1593.56 1120.68 1578.13 1155.65C1557.06 1203.43 1531.71 1248.77 1501.98 1291.68C1482.69 1319.53 1461.72 1346.03 1439.24 1371.39C1423.54 1389.11 1407.07 1406.08 1389.88 1422.3C1362.93 1447.74 1334.36 1471.3 1304.18 1492.85C1264.8 1520.98 1223.33 1545.62 1179.67 1566.53C1125.42 1592.5 1068.93 1612.19 1010.37 1625.79C985.623 1631.53 960.478 1635.31 935.366 1639.32C889.119 1646.7 842.631 1647.43 796.03 1646.75C782.882 1646.56 769.608 1646.45 756.636 1644.59C726.717 1640.31 696.623 1637.37 666.909 1631.4C626.624 1623.3 587.075 1612.72 548.432 1598.9C485.22 1576.28 425.595 1546.41 369.716 1509.13C335.958 1486.61 304.073 1461.71 273.914 1434.54C224.345 1389.89 181.061 1339.77 143.718 1284.58C116.548 1244.43 93.1517 1202.09 73.4248 1157.76C59.3724 1126.18 47.4422 1093.82 37.453 1060.74C27.6891 1028.4 20.8051 995.379 15.12 962.15C12.0425 944.162 10.2325 925.907 7.64393 907.834C0.223048 856.019 5.74317 804.041 4.2167 752.174C3.97654 744.014 7.12862 736.309 8.19936 728.281C10.1848 713.396 12.2519 698.519 14.8264 683.704C19.4511 657.09 25.4916 630.833 32.6447 604.803C47.3251 551.381 67.548 500.118 92.7939 450.845C115.487 406.554 142.063 364.689 172.434 325.252C197.942 292.13 225.576 260.878 255.903 232.103C301.545 188.798 351.223 150.802 405.423 118.677C452.435 90.8127 501.662 67.8375 553.146 49.6565C591.229 36.2081 630.188 25.8305 669.819 18.1697C690.879 14.0986 712.445 12.5029 733.446 8.53841C779.748 -0.202469 826.287 4.28523 872.709 3.41587C887.613 3.13677 902.772 4.30842 917.51 7.14938C956.117 14.5917 995.154 19.7758 1033.25 29.9249C1090.51 45.1772 1145.64 65.9074 1198.4 92.8561C1242.17 115.212 1283.61 141.267 1322.76 171.031C1357.49 197.431 1389.96 226.333 1420.1 257.809C1445.81 284.647 1469.43 313.243 1491.31 343.324C1520.8 383.878 1546.38 426.723 1567.93 471.963C1593.38 525.391 1613.11 580.826 1626.27 638.603C1631.21 660.283 1635.56 682.06 1638.87 704.015C1645.08 745.12 1648.32 786.462 1646.91 828.551Z" fill="black"/>
<path d="M683.24 494.285C702.963 465.83 725.252 440.226 751.292 417.796C773.828 398.384 798.287 381.999 824.394 367.932C838.423 360.372 853.179 354.474 867.937 348.504C887.064 340.766 906.893 335.669 927.027 331.75C938.501 329.516 950.216 328.504 961.831 327.005C979.513 324.723 997.315 324.571 1015.06 325.149C1031.23 325.676 1047.36 327.333 1063.36 330.138C1084.45 333.836 1105.09 339.339 1125.33 346.139C1149.68 354.322 1173 365.001 1195.37 377.685C1203.38 382.226 1211.89 386.091 1219.25 391.51C1228.37 398.217 1237.95 404.241 1246.84 411.322C1255.81 418.473 1264.04 426.419 1272.82 433.763C1279.31 439.191 1285.1 445.503 1290.86 451.74C1297.7 459.156 1305.29 465.91 1311.28 474.103C1317.89 483.152 1325.22 491.629 1331.13 501.25C1336.5 509.985 1343.27 517.84 1348.96 526.397C1353.01 532.495 1356.2 539.157 1359.91 545.49C1368.76 560.618 1376.01 576.591 1382.35 592.826C1388.89 609.597 1394.14 626.935 1397.99 644.604C1402.54 665.452 1406.61 686.328 1408.27 707.709C1409.1 718.484 1408.79 729.249 1409.48 740.011C1410.24 751.814 1408.66 763.724 1407.2 775.544C1406.11 784.294 1405.13 793.063 1404.14 801.823C1402.52 816.082 1399.21 829.977 1395.86 843.834C1389.77 869.097 1381.08 893.549 1369.81 916.969C1355.54 946.602 1338.23 974.324 1317.05 999.618C1305.46 1013.45 1292.96 1026.4 1279.74 1038.56C1256.94 1059.54 1231.58 1077.08 1204.4 1092C1178.09 1106.45 1150.2 1116.97 1121.32 1124.65C1105.18 1128.94 1088.7 1132.04 1072.01 1134.2C1050.42 1136.99 1028.78 1137.66 1007.16 1136.77C992.977 1136.19 978.797 1134.47 964.676 1132.23C939.617 1128.26 915.287 1121.81 891.498 1113.21C863.482 1103.08 836.97 1089.92 811.782 1073.92C784.073 1056.32 758.932 1035.66 735.915 1012.36C717.138 993.358 700.66 972.47 685.959 950.163C664.178 917.113 647.343 881.701 635.505 843.953C628.425 821.378 622.909 798.423 619.963 774.886C617.368 754.157 614.591 733.42 615.335 712.491C616.034 692.841 617.379 673.256 620.694 653.766C623.906 634.878 628.114 616.299 633.709 598.025C645.011 561.111 661.747 526.756 683.24 494.285Z" fill="white"/>
<path d="M1382.96 496.972C1380.05 496.48 1378.56 494.569 1377.67 492.514C1374.5 485.163 1369.89 478.584 1365.45 472.115C1357.72 460.847 1349.14 450.147 1341.28 438.927C1333.18 427.373 1323.95 416.661 1314.6 406.135C1306 396.458 1297.48 386.705 1288.24 377.552C1280.72 370.108 1273.19 362.808 1265.37 355.682C1258.71 349.617 1252.42 342.956 1245.19 337.548C1237.29 331.637 1229.98 325.014 1221.9 319.249C1214.47 313.948 1207.01 308.296 1199.69 302.677C1194.36 298.577 1188.31 295.189 1182.59 291.455C1177.68 288.249 1176.24 284.636 1175.66 278.699C1174.41 265.927 1175.67 253.117 1173.51 240.319C1171.15 226.385 1168.66 212.526 1164.96 198.91C1163.08 192 1160.46 185.291 1157.81 177.405C1168.08 181.5 1177.8 184.847 1187.05 189.177C1205.06 197.603 1222.74 206.745 1239.78 217.019C1253.21 225.117 1266.27 233.801 1279.26 242.608C1288.51 248.882 1297.44 255.66 1307.13 261.371C1313.29 264.999 1318.44 270.414 1324.18 274.876C1334.24 282.693 1344.08 290.854 1353.4 299.523C1359.1 304.823 1364.7 310.321 1369.87 316.235C1376.56 323.883 1383.89 330.971 1390.86 338.371C1396.2 344.031 1401.12 350.123 1406.77 355.453C1417.39 365.485 1424.65 378.286 1434.92 388.674C1439.12 392.923 1442.67 398.446 1445.77 404.078C1450.39 412.482 1456.75 419.914 1461.74 428.202C1464.7 433.127 1467.26 438.242 1469.62 443.442C1470.75 445.926 1469.02 447.276 1466.5 448.152C1452.18 453.121 1438.41 459.209 1425.8 467.792C1417.54 473.417 1409.1 478.817 1400.53 483.952C1394.29 487.682 1389.76 493.555 1382.96 496.972Z" fill="#FEFEFE"/>
<path d="M1141.99 815.624C1141.29 823.452 1138.3 830.354 1136.72 837.614C1134.17 849.347 1130.15 860.758 1127.48 872.472C1125.01 883.338 1118.63 890.498 1109.1 895.535C1099.2 900.764 1089.23 905.895 1079.65 911.662C1069.22 917.938 1058.77 919.217 1046.88 916.118C1030.58 911.868 1015.23 904.799 998.78 901.051C984.659 897.832 970.892 893.204 956.74 890.013C949.089 888.288 941.719 885.278 934.047 883.701C927.867 882.431 922.193 879.751 916.083 878.424C909.105 876.908 905.822 871.102 901.997 866.012C896.569 858.786 893.805 850.152 889.702 842.222C885.869 834.814 881.845 827.501 878.887 819.666C877.943 817.167 877.353 814.876 877.915 812.058C880.082 801.207 883.336 790.653 886.12 779.969C890.495 763.183 894.566 746.317 898.69 729.466C899.99 724.15 901.407 718.871 902.347 713.451C903.227 708.377 907.259 705.436 911.367 702.763C917.6 698.708 924.285 695.451 930.551 691.394C938.167 686.463 938.198 679.537 935.395 672.85C932.867 666.821 928.824 661.761 924.597 656.87C923.491 655.591 922.465 654.346 921.907 652.383C920.704 644.934 923.598 637.924 922.335 630.422C922.444 629.48 922.531 628.948 922.744 628.177C923.021 627.795 923.173 627.651 923.124 627.267C922.935 619.776 925.983 613.152 927.619 606.28C930.404 594.574 933.353 582.906 935.724 571.103C937.226 563.623 938.161 555.98 940.318 548.696C942.283 542.065 948.082 538.177 953.679 534.629C965.898 526.883 978.199 519.27 989.821 510.625C993.883 507.603 997.864 507.977 1002.83 509.294C1023.3 514.723 1043.49 521.053 1063.8 526.983C1092.04 535.226 1120.18 543.811 1148.39 552.145C1151.85 553.168 1153.89 555.164 1155.67 558.275C1162.07 569.483 1168.91 580.44 1175.37 591.61C1178.51 597.021 1181.18 602.696 1184.09 608.619C1184.24 611.787 1184.06 614.621 1185.07 617.677C1184.56 627.143 1181.27 635.735 1179.75 644.698C1177.65 657.05 1175.41 669.386 1172.83 681.644C1170.52 692.595 1167.79 703.46 1165 714.3C1164.18 717.485 1161.54 719.529 1158.64 721.001C1151.56 724.592 1144.96 728.936 1138.48 733.502C1132.92 737.415 1131.28 742.348 1134.28 748.53C1138.05 756.282 1143.28 763.151 1148.08 770.625C1147.22 773.646 1148.67 776.264 1148.42 778.745C1148.14 781.41 1146.5 783.872 1145.92 786.686C1143.94 796.13 1142.91 805.675 1141.99 815.624Z" fill="#030303"/>
<path d="M1142.18 815.696C1140.65 812.014 1141.13 808.113 1141.9 804.037C1143.26 796.85 1144.09 789.559 1145.03 782.299C1145.21 780.958 1145.67 780.311 1146.97 779.869C1148.12 779.477 1148.24 777.805 1147.52 777.448C1143.24 775.321 1146.57 773.302 1147.76 771.115C1152.02 774.902 1151.57 779.28 1150.02 784.171C1146.78 794.395 1145.87 805.211 1142.18 815.696Z" fill="#030303"/>
<path d="M922.077 630.287C925.414 632.5 923.8 635.898 923.791 638.816C923.778 643.035 922.969 647.252 922.194 651.747C919.055 649.057 919.024 645.577 919.822 641.825C920.615 638.099 921.15 634.318 922.077 630.287Z" fill="#464D62"/>
<path d="M1185.38 617.692C1181.27 615.849 1183.53 612.454 1183.8 609.251C1186.32 611.482 1185.59 614.49 1185.38 617.692Z" fill="#5C6166"/>
<path d="M922.773 627.247C923.153 627.199 923.389 627.365 923.6 627.557C923.612 627.568 923.43 627.793 923.104 627.928C922.788 627.781 922.705 627.624 922.773 627.247Z" fill="#464D62"/>
<path d="M1099.12 856.621C1098.81 856.903 1098.56 857.132 1098.52 857.296C1098.32 858.838 1098.03 860.184 1097.14 861.665C1096.87 861.892 1096.99 861.998 1096.94 861.938C1094.66 866.89 1089.92 868.982 1085.42 871.861C1085.23 872.14 1085.12 872.129 1085.14 872.179C1082.99 875.457 1079.26 876.481 1075.93 878.604C1061.56 888.898 1046.82 887.194 1031.55 881.804C1011.73 874.807 991.422 869.426 970.952 864.628C962.907 862.741 954.981 860.306 947.072 857.889C939.677 855.63 934.811 850.145 931 843.828C925.799 835.209 921.06 826.313 916.015 817.598C912.24 811.078 912.273 804.359 914.667 797.492C920.153 781.754 923.472 765.409 928.277 749.49C929.033 746.986 928.216 744.693 929.367 742.012C935.39 727.977 949.065 723.109 960.195 715.263C963.335 713.05 966.855 711.096 970.707 709.941C974.415 708.829 978.184 707.964 981.833 709.323C1002.46 717 1024.3 720.271 1045.17 727.057C1057.86 731.186 1070.66 735.015 1083.35 739.162C1086.95 740.336 1090.48 741.908 1093.35 745.103C1097.93 749.824 1100.22 755.67 1103.66 760.78C1104.28 761.712 1104.73 762.785 1105.64 763.97C1105.8 764.288 1105.85 764.649 1105.95 764.804C1113.57 773.999 1117.25 784.134 1114.72 795.964C1111.52 810.935 1107.53 825.704 1103.49 840.467C1102.05 845.722 1101.74 851.288 1099.12 856.621Z" fill="#FEFEFE"/>
<path d="M1129.36 698.781C1128.39 699.113 1127.77 699.211 1127.05 699.61C1122.07 704.091 1116.61 707.262 1110.3 709.593C1101.41 712.824 1093.75 708.091 1085.96 706.357C1071.99 703.245 1058.41 698.432 1044.56 694.736C1027.19 690.102 1010.19 683.959 992.408 681.036C979.401 678.899 972.447 670.21 965.92 660.01C952.846 639.577 954.518 645.418 959.382 622.634C962.726 606.969 965.664 591.214 969.182 575.589C970.557 569.481 972.789 563.606 979.275 560.526C986.421 557.133 992.252 551.589 999.469 548.123C1007.74 544.153 1015.89 544.889 1024.1 547.135C1038.75 551.145 1053.4 555.225 1067.85 559.872C1086.81 565.965 1106.56 569.281 1125.2 576.508C1129.37 578.122 1132.56 580.683 1135.39 583.754C1142.85 591.856 1148.06 601.455 1153.11 611.554C1154.66 613.014 1155.36 614.498 1155.09 616.26C1154.21 621.82 1154.09 627.49 1152.59 632.959C1149.06 645.918 1146.69 659.133 1144.1 672.294C1143.1 677.342 1141.95 682.318 1140.55 687.273C1138.9 693.111 1135.21 696.613 1129.36 698.781Z" fill="#FEFEFE"/>
<path d="M1129.36 699.143C1140.95 692.503 1141.12 680.292 1143.49 669.144C1146.14 656.687 1148.27 644.13 1151.7 631.821C1153.41 625.684 1154.57 619.198 1153.26 612.276C1156.93 611.773 1157.53 614.187 1156.77 616.857C1156.03 619.498 1155.83 622.136 1156.14 624.72C1156.86 630.587 1154.73 635.826 1152.72 641C1151.08 645.227 1150.48 649.648 1150.2 653.94C1149.66 662.204 1148.18 670.277 1146.63 678.351C1146.22 680.533 1145.75 683.171 1143.68 684.47C1141.61 685.767 1141.53 687.744 1142.14 689.212C1143.81 693.228 1141.57 694.836 1138.48 695.593C1135.31 696.367 1133.93 701.236 1129.36 699.143Z" fill="#030303"/>
<path d="M1099.2 856.89C1100.17 850.97 1101.45 845.017 1102.91 839.11C1106.41 825.011 1109.85 810.893 1113.6 796.859C1116.78 784.953 1112.1 775.179 1105.98 765.321C1107.21 764.885 1108.21 764.841 1109.1 766.007C1113.32 771.501 1116.96 777.257 1116.98 784.464C1117.01 792.383 1117.79 804.277 1115.18 812.022C1114.65 810.964 1114.78 813.211 1115.18 812.022C1116.57 814.798 1115.86 816.414 1113.09 817.401C1110.06 818.48 1110.44 821.069 1110.28 823.507C1110.01 827.797 1108.57 832.146 1107.39 835.946C1105.86 840.876 1105.24 845.606 1104.42 850.537C1104.13 852.307 1102.93 856.114 1099.2 856.89Z" fill="#030303"/>
<path d="M1105.85 763.875C1102 761.411 1100.63 756.841 1098.05 753.117C1096.47 750.836 1095.16 748.363 1093.69 745.619C1097.71 745.785 1098.51 749.85 1100.97 752.116C1104.19 755.091 1105.35 759.2 1105.85 763.875Z" fill="#40465B"/>
<path d="M1109.96 709.9C1115.41 706.465 1120.87 703.369 1126.64 700.092C1124.66 705.363 1119.97 708.057 1114.77 709.713C1113.47 710.129 1111.8 712.993 1109.96 709.9Z" fill="#484C5D"/>
<path d="M1085.61 872.151C1088.01 867.809 1093.79 866.736 1096.56 861.954C1096.96 869.222 1091.04 870.222 1085.61 872.151Z" fill="#40465B"/>
<path d="M1075.97 878.776C1078.55 876.551 1081.51 874.432 1084.81 872.271C1084.73 877.769 1079.88 877.448 1075.97 878.776Z" fill="#40465B"/>
<path d="M1097.29 861.879C1096.83 860.458 1097.11 859.109 1098.21 857.684C1098.75 859.021 1099.76 860.716 1097.29 861.879Z" fill="#40465B"/>
</g>
<defs>
<clipPath id="clip0_1_2">
<rect width="1648" height="1648" fill="white"/>
</clipPath>
</defs>
</svg>
